<?xml version="1.0" standalone="no"?>
<!DOCTYPE svg PUBLIC "-//W3C//DTD SVG 20010904//EN"
 "http://www.w3.org/TR/2001/REC-SVG-20010904/DTD/svg10.dtd">
<svg version="1.0" xmlns="http://www.w3.org/2000/svg"
 width="700.000000pt" height="700.000000pt" viewBox="0 0 700.000000 700.000000"
 preserveAspectRatio="xMidYMid meet">
<metadata>
Created by potrace 1.11, written by Peter Selinger 2001-2013
</metadata>
<g transform="translate(0.000000,700.000000) scale(0.100000,-0.100000)"
fill="#000000" stroke="none">
<path d="M3323 6993 c20 -2 54 -2 75 0 20 2 3 4 -38 4 -41 0 -58 -2 -37 -4z"/>
<path d="M3598 6993 c23 -2 59 -2 80 0 20 2 1 4 -43 4 -44 0 -61 -2 -37 -4z"/>
<path d="M3173 6983 c9 -2 25 -2 35 0 9 3 1 5 -18 5 -19 0 -27 -2 -17 -5z"/>
<path d="M3788 6983 c12 -2 30 -2 40 0 9 3 -1 5 -23 4 -22 0 -30 -2 -17 -4z"/>
<path d="M3073 6973 c9 -2 25 -2 35 0 9 3 1 5 -18 5 -19 0 -27 -2 -17 -5z"/>
<path d="M3893 6973 c9 -2 25 -2 35 0 9 3 1 5 -18 5 -19 0 -27 -2 -17 -5z"/>
<path d="M2998 6963 c6 -2 18 -2 25 0 6 3 1 5 -13 5 -14 0 -19 -2 -12 -5z"/>
<path d="M3973 6963 c9 -2 23 -2 30 0 6 3 -1 5 -18 5 -16 0 -22 -2 -12 -5z"/>
<path d="M2938 6953 c7 -3 16 -2 19 1 4 3 -2 6 -13 5 -11 0 -14 -3 -6 -6z"/>
<path d="M4048 6953 c7 -3 16 -2 19 1 4 3 -2 6 -13 5 -11 0 -14 -3 -6 -6z"/>
<path d="M2878 6943 c7 -3 16 -2 19 1 4 3 -2 6 -13 5 -11 0 -14 -3 -6 -6z"/>
<path d="M4108 6943 c7 -3 16 -2 19 1 4 3 -2 6 -13 5 -11 0 -14 -3 -6 -6z"/>
<path d="M2818 6933 c7 -3 16 -2 19 1 4 3 -2 6 -13 5 -11 0 -14 -3 -6 -6z"/>
<path d="M4168 6933 c7 -3 16 -2 19 1 4 3 -2 6 -13 5 -11 0 -14 -3 -6 -6z"/>
<path d="M2718 6913 c6 -2 18 -2 25 0 6 3 1 5 -13 5 -14 0 -19 -2 -12 -5z"/>
<path d="M4258 6913 c7 -3 16 -2 19 1 4 3 -2 6 -13 5 -11 0 -14 -3 -6 -6z"/>
<path d="M2638 6893 c7 -3 16 -2 19 1 4 3 -2 6 -13 5 -11 0 -14 -3 -6 -6z"/>
<path d="M4910 6700 c8 -5 20 -10 25 -10 6 0 3 5 -5 10 -8 5 -19 10 -25 10 -5
0 -3 -5 5 -10z"/>
<path d="M5051 6636 c2 -2 15 -9 29 -15 24 -11 24 -11 6 3 -16 13 -49 24 -35
12z"/>
<path d="M5190 6566 c0 -3 9 -10 20 -16 11 -6 20 -8 20 -6 0 3 -9 10 -20 16
-11 6 -20 8 -20 6z"/>
<path d="M5260 6526 c0 -3 9 -10 20 -16 11 -6 20 -8 20 -6 0 3 -9 10 -20 16
-11 6 -20 8 -20 6z"/>
<path d="M5310 6496 c0 -3 9 -10 20 -16 11 -6 20 -8 20 -6 0 3 -9 10 -20 16
-11 6 -20 8 -20 6z"/>
<path d="M5420 6427 c0 -2 19 -17 43 -32 23 -16 37 -22 30 -14 -12 15 -73 53
-73 46z"/>
<path d="M1479 6363 c-13 -16 -12 -17 4 -4 9 7 17 15 17 17 0 8 -8 3 -21 -13z"/>
<path d="M5510 6366 c0 -2 14 -14 30 -26 17 -12 30 -19 30 -16 0 2 -13 14 -30
26 -16 12 -30 19 -30 16z"/>
<path d="M1375 6288 c-212 -162 -453 -398 -609 -594 -407 -510 -647 -1076
-743 -1745 -22 -157 -25 -710 -5 -859 48 -352 124 -642 242 -929 258 -627 709
-1182 1268 -1559 123 -83 154 -102 137 -85 -5 5 -72 52 -147 103 l-138 93 0
2788 c0 1534 3 2789 8 2789 8 1 80 59 72 60 -3 0 -41 -28 -85 -62z"/>
<path d="M5580 6316 c0 -2 8 -10 18 -17 15 -13 16 -12 3 4 -13 16 -21 21 -21
13z"/>
<path d="M5620 6286 c0 -2 8 -10 18 -17 15 -13 16 -12 3 4 -13 16 -21 21 -21
13z"/>
<path d="M5710 6213 c30 -26 75 -66 99 -89 l44 -41 -324 -626 -324 -626 -1087
-1 -1088 0 0 -230 0 -230 965 0 c531 0 965 -3 964 -7 0 -5 -159 -314 -353
-688 l-353 -680 -612 -3 -611 -2 0 -1475 0 -1475 -27 -1 c-16 -1 10 -8 57 -15
142 -23 607 -29 787 -10 452 48 822 155 1228 356 871 431 1537 1241 1799 2186
288 1042 79 2171 -559 3030 -166 223 -390 459 -581 612 -45 36 -55 43 -24 15z
m-926 -3528 c37 -8 87 -25 110 -39 58 -34 123 -107 154 -174 24 -50 27 -69 27
-157 0 -89 -3 -106 -28 -157 -130 -265 -499 -292 -657 -48 -48 75 -64 140 -58
238 10 170 140 314 307 342 67 11 69 11 145 -5z m-626 -610 c117 -28 209 -103
260 -213 23 -49 27 -70 27 -152 0 -83 -4 -103 -28 -156 -17 -36 -50 -82 -80
-112 -237 -233 -637 -70 -638 260 -1 119 43 217 129 294 56 49 159 88 247 93
11 0 49 -6 83 -14z m1320 -17 c71 -27 160 -110 197 -185 34 -69 45 -181 25
-262 -40 -166 -211 -290 -386 -279 -135 9 -261 94 -322 217 -24 50 -27 67 -27
156 0 88 3 107 27 157 87 187 291 269 486 196z m-632 -609 c76 -29 156 -105
196 -187 31 -62 33 -74 33 -167 0 -89 -3 -106 -28 -157 -83 -170 -283 -257
-457 -198 -86 29 -155 81 -200 152 -48 73 -64 139 -58 236 6 99 41 173 115
243 110 104 254 132 399 78z"/>
<path d="M1685 503 c6 -6 33 -23 60 -38 28 -16 46 -24 40 -18 -5 6 -32 23 -60
38 -27 16 -45 24 -40 18z"/>
<path d="M1800 435 c0 -13 378 -190 387 -182 2 2 -27 17 -64 32 -38 16 -125
57 -195 92 -71 35 -128 61 -128 58z"/>
<path d="M2210 242 c21 -14 192 -73 197 -69 2 3 -36 18 -84 35 -125 44 -131
45 -113 34z"/>
<path d="M2450 155 c19 -7 42 -13 50 -13 8 0 -1 6 -20 13 -19 7 -42 13 -50 13
-8 0 1 -6 20 -13z"/>
<path d="M2598 113 c7 -3 16 -2 19 1 4 3 -2 6 -13 5 -11 0 -14 -3 -6 -6z"/>
<path d="M2638 103 c7 -3 16 -2 19 1 4 3 -2 6 -13 5 -11 0 -14 -3 -6 -6z"/>
<path d="M2678 93 c7 -3 16 -2 19 1 4 3 -2 6 -13 5 -11 0 -14 -3 -6 -6z"/>
<path d="M2718 83 c6 -2 18 -2 25 0 6 3 1 5 -13 5 -14 0 -19 -2 -12 -5z"/>
<path d="M2768 73 c6 -2 18 -2 25 0 6 3 1 5 -13 5 -14 0 -19 -2 -12 -5z"/>
<path d="M2818 63 c7 -3 16 -2 19 1 4 3 -2 6 -13 5 -11 0 -14 -3 -6 -6z"/>
<path d="M2863 53 c9 -2 23 -2 30 0 6 3 -1 5 -18 5 -16 0 -22 -2 -12 -5z"/>
<path d="M2923 43 c9 -2 23 -2 30 0 6 3 -1 5 -18 5 -16 0 -22 -2 -12 -5z"/>
</g>
</svg>
