<svg version="1.1" xmlns="http://www.w3.org/2000/svg" xmlns:xlink="http://www.w3.org/1999/xlink" width="426.61721" height="146.46773" viewBox="0,0,426.61721,146.46773"><g transform="translate(-22.63099,-9.52103)"><g data-paper-data="{&quot;isPaintingLayer&quot;:true}" fill="#424242" fill-rule="nonzero" stroke="none" stroke-width="0.5" stroke-linecap="butt" stroke-linejoin="miter" stroke-miterlimit="10" stroke-dasharray="" stroke-dashoffset="0" font-family="none" font-weight="none" font-size="none" text-anchor="none" style="mix-blend-mode: normal"><path d="M98.53767,75.561c0.04045,0.22462 0.07042,0.46205 0.08867,0.71304c0.36268,4.98683 -4.62415,5.34951 -4.62415,5.34951l-5.36268,-5.98683c0,-2.63357 0.41438,-5.62792 0.05826,-8.21361c-0.49941,-3.62611 -1.64062,-7.14995 -2.05826,-10.78639c-0.63147,-5.49827 0,-11.47572 0,-17c0,-0.35929 0,-0.71857 0,-1.07786c-0.57075,1.30804 -1.16643,2.60174 -1.83975,3.85137c-0.99631,1.84907 -2.56938,3.3464 -3.56453,5.19609c-1.04022,1.93347 -1.99014,3.93094 -2.69282,6.01098c-0.27199,0.80514 0.16347,1.96893 -0.5,2.5c-2.67228,2.13902 -5.76915,3.76187 -8.93844,5.05495c-0.43648,0.17809 -0.6792,-0.65459 -1,-1c-2.17728,-2.34432 -4.15126,-5.33645 -5.31517,-8.32286c-0.39994,-1.02618 -1.44414,-6.21964 -1.83093,-7.45706c-1.12886,-3.61143 -2.70117,-7.09269 -3.8995,-10.68765c-0.10923,-0.3277 -0.24111,-0.65173 -0.38154,-0.97437c-0.48365,2.39093 -0.85034,4.80296 -1.56518,7.14247c-0.33016,1.08055 -1.27141,1.90233 -1.62142,2.97661c-1.32829,4.07692 -0.77392,4.93191 -2.5095,9.26802c-0.81555,2.03753 -2.69805,3.54352 -3.45979,5.60177c-2.55712,6.90937 -3.88142,15.57516 -3.88142,22.91753c0,0 0,5 -5,5c-5,0 -5,-5 -5,-5c0,-5.42319 0.93813,-10.46588 2.05826,-15.78639c0.65387,-3.10581 0.9462,-6.32416 2.06032,-9.29608c1.11707,-2.9798 3.35926,-5.44316 4.54021,-8.39823c0.8529,-2.13423 0.75327,-4.5551 1.4905,-6.73199c0.59428,-1.75478 1.86245,-3.24404 2.37858,-5.02339c1.13222,-3.90327 1.04707,-8.22744 2.66452,-12.13753c0.65427,-1.58167 1.03709,-3.8196 2.64737,-4.3999c2.31716,-0.83503 4.8276,-0.97995 7.24139,-1.46992c3.31113,1.10371 4.68253,5.28393 6.24342,8.4057c2.15113,4.30226 3.93894,10.54299 5.35709,15.08211c0.45655,1.4613 0.74499,2.97283 1.06312,4.47445c1.5219,-2.97172 3.48919,-5.50762 5.09498,-8.49234c1.60939,-2.99141 2.66541,-6.39907 4.18811,-9.46257c0.61354,-1.22708 1.29699,-2.41851 2.02271,-3.58495l-0.11924,-0.08516l4.96127,-6.94578c0.90314,-1.29827 2.40604,-2.14803 4.1074,-2.14803c2.76143,0 5,2.23858 5,5v5c0.95821,1.36368 0,3.33334 0,5v0c0,3.33334 0,6.66666 0,10c0,5.51405 -0.65302,11.51382 0,17c0.35537,2.98557 1.47669,5.84364 1.86406,8.82523c0.42877,3.30022 0.13594,6.84324 0.13594,10.17477z" data-paper-data="{&quot;origPos&quot;:null}"/><path d="M151.49023,25.42404c0.21204,0.84819 0.2387,1.58515 0.13831,2.22383l0.01097,-0.01115c0,8.1191 0.12064,16.22585 -0.38595,24.33137c-0.1846,2.95361 -0.49222,9.39908 -1.14191,11.9047c-0.92848,3.58085 -3.70902,7.69645 -5.68467,10.83641c-3.05212,4.85083 -7.46973,10.16299 -13.30688,11.33042c-7.2425,1.24246 -15.18312,1.36279 -21.64083,-2.6294c-3.3263,-2.05633 -3.6185,-9.47359 -3.83975,-12.7735c-0.77428,-11.54842 0,-23.42973 0,-35c0,0 0,-5 5,-5c5,0 5,5 5,5c0,7.83333 0,15.66667 0,23.5c0,5.90471 -0.45412,11.99643 0.94975,17.79289c0.04741,0.19576 0.05101,-0.6894 0.2105,-0.56639c0.47584,0.367 0.44282,1.72508 1,1.5c0.54565,-0.22043 -1.17974,-1.31914 -0.67967,-1.6294c0.72213,-0.44804 1.65568,0.40334 2.5,0.5c2.87608,0.32926 6.76389,0.23583 9.53884,-0.5c0.83334,-0.16666 1.81169,-0.00156 2.5,-0.5c0.45686,-0.33083 0.10844,-1.18 0.44504,-1.63263c2.17777,-2.92849 3.54591,-3.87242 5.24807,-7.03695c1.35178,-2.51311 3.1132,-4.89772 3.81533,-7.66359c0.66082,-2.60312 -0.06187,-5.3759 0.10566,-8.05635c0.4936,-7.89761 0.36648,-15.79622 0.36648,-23.70758l3.78733,-5.85072c0,0 4.85071,-1.21268 6.06339,3.63804z" data-paper-data="{&quot;origPos&quot;:null}"/><path d="M225.70922,10.68996c3.94676,3.0697 0.87705,7.01646 0.87705,7.01646l1.05324,-1.0697c0,15.06955 -0.03595,30.13603 -0.16764,45.20519c-0.16406,7.73137 -1.94834,24.94145 -13.52517,18.16573c-1.1794,-0.69028 -1.8628,-2.00052 -2.76393,-3.02786c-1.20157,-1.36987 -2.52973,-2.64842 -3.54325,-4.16272c-1.62945,-2.43455 -2.18984,-5.47659 -3.79628,-7.92638c-1.85743,-2.83254 -4.5468,-5.03816 -6.54494,-7.77326c-3.19774,-4.37714 -6.11724,-10.05012 -8.4022,-14.89955c-0.72345,-1.5354 -0.72365,-3.3493 -1.46248,-4.87736c-0.96393,-1.99363 -2.39495,-3.72548 -3.59242,-5.58822c-0.97989,-1.52427 -1.78809,-3.10211 -2.70451,-4.57323c-0.94952,4.15988 -0.65317,8.98785 -1.61369,13.53534c-2.44665,11.58341 -0.88349,25.11121 -0.88349,36.92232c0,0 0,5 -5,5c-5,0 -5,-5 -5,-5c0,-10.76201 -1.06277,-22.26713 0,-33c0.45705,-4.61575 2.02398,-8.7831 1.98065,-13.42989c-0.0383,-4.10719 1.04616,-7.86127 2.16864,-11.78278c0.32525,-1.1363 -0.043,-3.09683 1.10729,-3.36846c3.1749,-0.74972 6.49561,-0.61257 9.74341,-0.91886c2.44337,1.83253 4.19013,4.47796 5.90968,7.00211c2.02523,2.97285 4.71555,6.51458 6.29621,9.7941c1.0943,2.27043 1.45075,4.8486 2.53752,7.12265c2.03984,4.2683 4.7665,9.26386 7.5978,13.10045c2.16543,2.93429 3.31476,2.97206 5.45507,6.22673c2.05379,3.12311 3.0823,6.84692 5.14799,9.96217c0.03307,0.04987 0.06647,0.09857 0.10019,0.14618c0.3049,-0.85654 0.74489,-1.74003 0.82504,-2.58752c0.13022,-1.37694 -0.02451,-2.76605 -0.03677,-4.14907c0.13144,-15.04003 0.16726,-30.07736 0.16726,-45.11779l1.05324,-5.06971c0,0 3.0697,-3.94676 7.01647,-0.87706zM220.23326,71.54511c0.00784,0.00815 0.01566,0.01633 0.02346,0.02456c0.33806,0.06656 0.57394,0.12865 0.38282,0.06705c-0.12868,-0.04148 -0.2648,-0.07097 -0.40628,-0.09161z" data-paper-data="{&quot;origPos&quot;:null}"/><path d="M253.63952,45.63672c0,6.82453 -0.23889,13.52284 -0.72518,20.33082c-0.29025,4.06353 -0.27482,8.09503 -0.27482,12.16918c0,1.10199 0.02903,2.23333 0.35072,3.28732c0.2006,0.65726 0.4428,2.6848 0.5,2c0.10553,-1.26344 -1.28713,-2.9326 -0.35072,-3.78732c1.31787,-1.20291 4.16145,0.43082 5.26393,-0.97213c3.26554,-1.63277 4.11528,-2.97815 6.70053,-5.5634c0.66667,-0.66666 1.71974,-1.09981 2,-2c0.13529,-0.43457 -0.33981,-0.88799 -0.27209,-1.33807c0.67538,-4.48891 1.94267,-9.26712 2.92669,-13.71105c0.67179,-3.03388 1.41258,-6.25525 0.88093,-9.41535c-0.2627,-1.5615 -1.24268,-2.91666 -1.74341,-4.41886c-0.33333,-1 -0.30539,-2.20714 -1,-3c-0.30809,-0.35166 -0.9276,-0.25285 -1.29212,-0.54561c-2.76827,-2.22331 -4.9216,-4.42539 -8.03695,-6.24807c-0.95027,-0.57016 -1.98929,-1.13456 -3.08786,-1.49506l-2.09624,6.28873c-0.43551,2.77361 0.25658,5.61127 0.25658,8.41886zM246.53504,26.08181c-0.60636,-1.32114 -0.67074,-2.74091 0.56897,-3.98062c3.53554,-3.53553 3.53554,-1.46447 3.53554,-1.46447h1.5c4.18337,0.16375 7.95593,1.0426 11.57248,3.21253c5.334,3.2568 10.01561,7.03382 13.67094,12.20633c0.85768,1.21367 1.64752,4.81582 2,6c1.69883,5.70733 1.4301,10.37105 0.13752,16.16579c-1.52026,6.81541 -2.21594,13.57933 -5.3454,19.95089c-0.41564,0.84624 -1.33333,1.33334 -2,2c-2.94295,2.94295 -5.55307,5.5634 -9.29946,7.4366c-7.65016,2.96281 -11.18523,2.88273 -19.08678,-1.75946c-0.5925,-0.3481 -0.35205,-1.32894 -0.5,-2c-0.82769,-3.75405 -0.65694,-7.3856 -0.64929,-11.21268c0.01137,-5.69048 0.79734,-11.31809 1,-17c0.25199,-7.0648 -0.85299,-14.58154 0.25659,-21.58114c0.43841,-2.76565 1.66861,-5.33798 2.6389,-7.97377z" data-paper-data="{&quot;origPos&quot;:null}"/><path d="M308.32593,36.86291c-0.25259,0.29097 -0.51229,0.58965 -0.78205,0.89729c-3.10564,3.54174 -5.86985,6.0893 -7.26196,10.73347c-0.04836,0.16134 0.30732,-0.51769 0.35761,-0.35695c0.60485,1.93326 -0.32223,4.49726 0,6.5c0.37252,2.31526 0.89286,4.64683 1.85072,6.78732c0.16436,0.36729 0.77074,0.30302 1.05363,0.5892c1.50047,1.51794 2.66667,3.33334 4,5c0.66667,0.83334 1.12942,1.88277 2,2.5c0.4257,0.30182 1.06565,-0.12293 1.56525,0.02775c5.53897,1.67063 9.77651,3.16788 15.70841,1.16376c0.38463,-0.12995 -1.28494,0.29609 -1.21354,-0.10357c0.12435,-0.69608 1.21642,-0.85225 1.5,-1.5c0.11618,-0.26538 -0.82432,0.34144 -0.86737,0.05495c-0.11633,-0.77428 0.90197,-3.80089 1.15949,-4.60056c0.79352,-2.4641 0.24341,-5.32825 0.24341,-7.91886c0,-4.79342 0.25817,-9.88325 -2.78746,-13.92752c-0.5,-0.83333 -0.84783,-1.77951 -1.5,-2.5c-0.20157,-0.22269 0.35138,0.9151 0.0514,0.89965c-1.11808,-0.05757 -3.04959,-1.56438 -4.34507,-1.72872c-0.80437,-0.10204 -1.62593,0.42592 -2.41886,0.25658c-2.8596,-0.61071 -5.49654,-2.03279 -8.3136,-2.77381zM315.85152,29.33043c0.25156,0.1309 0.51178,0.23916 0.78796,0.30629c1.80966,0.43983 3.7391,-0.0177 5.58114,0.25658c4.53107,0.67468 8.95169,3.91323 11.20632,7.67094c3.40064,6.22653 4.21254,12.06904 4.21254,19.07248c0,6.6469 -0.34045,13.4543 -3.46446,19.53554c-1.58038,3.0764 -5.58332,4.40638 -8.71354,4.89643c-9.04401,1.4159 -19.67485,-0.24414 -25.72634,-7.8085c-2.3327,-2.91587 -5.35926,-6.02823 -6.94637,-9.4108c-0.58379,-1.24422 -0.68775,-2.66157 -1,-4c-1.09118,-4.67723 -1.91231,-10.23506 -0.79167,-15.06963c0.9268,-3.99833 3.19859,-6.99779 5.72344,-9.8816c-0.21318,-0.34049 -0.42512,-0.73534 -0.63289,-1.19243c-2.06901,-4.55183 4.55183,-7.06901 4.55183,-7.06901h1.5c0.66696,0 1.3252,0.00291 1.97689,0.01385c1.37234,-1.40853 2.82429,-2.73974 4.52311,-4.01385c0,0 4,-3 7,1c1.80275,2.40367 1.07779,4.44623 0.21204,5.69371z" data-paper-data="{&quot;origPos&quot;:null}"/><path d="M428.53289,69.71601c-1.20076,0.92414 -3.18754,1.73381 -5.66681,0.08096c-1.77998,-1.18666 -2.29068,-2.62716 -2.29238,-3.88708c-1.0251,1.77805 -2.5587,3.20548 -4.85298,3.97024c-7.92513,1.94604 -17.48683,-0.98819 -21.98404,-8.26283c-0.03821,-0.0618 -0.07242,-0.12521 -0.10313,-0.19c-0.07155,0.12427 -0.14497,0.24753 -0.22047,0.36968c-0.92814,1.50135 -2.94096,1.98934 -4.56082,2.69046c-4.0231,1.7413 -10.94655,2.77909 -14.48618,0.30954c-1.14459,-0.79856 -2.96154,-1.26182 -3.26204,-2.62472c-0.58369,-2.64735 -1,-5.36014 -1,-8.07107c0,-0.74636 0.2317,-1.0609 0.53553,-1.10431c0,-0.78672 0,-1.57344 0,-2.36016c0,-3.33333 0,-6.66667 0,-10c0,0 0,-3.21171 2.57406,-4.487l-1.47696,-1.49358c0,0 0.98058,-4.90291 5.88348,-3.92233c0.91264,0.18252 1.62141,0.50096 2.1706,0.89837c2.16834,-0.00822 3.03756,0.0588 6.38435,1.469c0.70919,0.29882 0.66155,1.49714 1.32142,1.89315c2.15045,1.29055 4.46666,2.43469 6.42359,3.99016c0.02389,-0.06771 0.04957,-0.13596 0.07708,-0.20473c1.85696,-4.64238 4.64238,-3.14305 4.64238,-3.14305h2c3.83569,0.35565 6.57876,1.09486 10,3c1.07873,0.6007 1.77662,1.7598 2.85696,2.35762c2.8184,1.5596 5.79735,3.07353 7.99376,5.4297c1.29994,1.39449 1.14928,5.39296 1.14928,7.21268c0,2.78804 -0.01806,6.12781 -0.80008,9.09633l5.80008,-2.09633c2.66667,0 5.33333,0 8,0c1,0 2,0 3,0c0.09524,0 0.217,-0.01609 0.35013,-0.03907c0.07196,-0.10795 0.14393,-0.2159 0.21589,-0.32384c-0.00561,-0.00561 -0.01121,-0.01121 -0.01682,-0.01682c-1.6807,-0.34843 -4.12441,-0.89348 -4.40615,-0.97789c-4.56611,-1.36798 -11.15585,-3.72172 -11.88646,-9.06124c-0.33288,-2.43281 -0.5782,-4.90447 -0.41683,-7.35464c0.1553,-2.35795 2.99852,-3.74108 4.94757,-5.07721c3.31591,-2.27314 10.31548,-1.14929 14.21267,-1.14929c0,0 5,0 5,5c0,5 -5,5 -5,5c-2.88351,0 -6.15465,-0.43628 -9,0c-0.19481,0.02987 -0.47632,0.17689 -0.78852,0.35139c0.02497,0.07227 0.00007,0.15474 -0.05692,0.24282c0.02852,-0.00982 0.06439,-0.01032 0.10616,-0.0033c0.14801,-0.18747 0.30302,-0.2865 0.48271,-0.17205c0.27019,0.17209 0.55523,0.47244 0.7948,0.82062c0.01472,0.00619 0.02904,0.0119 0.04291,0.0171c0.93219,0.34905 1.85104,0.73275 2.77582,1.10103c3.83317,1.52652 6.57847,1.70941 10.17858,4.10685c0.45884,0.45884 2.95715,2.39575 3,3c0.18435,2.59949 0.00559,5.231 -0.37528,7.80904c-0.17565,1.18894 -1.33333,2 -2,3c-3.6016,5.40241 -13.45087,3.7265 -19.16026,3.7265zM431.72246,47.32622c-0.37441,0.44214 -1.35175,0.97704 -0.92262,1.084c0.38618,0.09626 0.65727,-0.48515 0.9286,-0.92897c-0.00299,-0.03005 -0.00557,-0.0594 -0.00771,-0.08795c-0.00191,-0.0255 -0.00128,-0.04778 0.00173,-0.06708zM405.85898,47.61096c-1.03328,1.21614 -1.9791,2.50328 -3.00555,3.70379c0.059,0.31037 -0.21387,0.95261 -0.21387,1.32198c0,0.5 0,1 0,1.5c0,0.66425 0.38643,2.05392 0.66889,3.29406c0.33551,0.20984 0.7437,0.84004 1.10461,1.04569c0.46812,0.26675 0.97828,0.45201 1.46257,0.68812c1.56693,0.76393 3.12697,1.64577 4.76393,1.47213c2.00092,-0.21225 2.21715,0.6483 1.9248,-0.22564c-0.24989,0.08861 -0.45576,0.09058 -0.56718,-0.13132c-0.40274,-0.80209 0.78803,-1.62786 1,-2.5c0.17104,-0.70374 -0.35762,-1.41882 -0.35762,-2.14305c0,-1.55609 0.11292,-2.98892 -0.25644,-4.44915c-0.02746,0.03263 -0.06075,0.06321 -0.1005,0.09154c-0.73092,0.52087 -1.71585,-0.56334 -2.5,-1c-1.47578,-0.8218 -2.64693,-1.81767 -3.92363,-2.66815zM412.03208,49.67931c-0.12899,-0.6673 -0.23722,-1.24545 -0.24326,-0.82991c-0.00374,0.25729 0.10796,0.54339 0.24326,0.82991zM412.73335,60.34229c0.60477,-0.15964 1.79065,-0.3548 1.32508,-0.44899c-0.3888,-0.07865 -0.89907,0.25756 -1.32508,0.44899zM380.63951,41.70348c0,2.97774 0,5.95549 0,8.93324c0,1.66667 0.55099,3.42704 0,5c-0.03487,0.09954 -0.07129,0.19844 -0.10916,0.29674c0.58071,-0.26283 1.46537,-0.05236 2.12858,-0.19964c1.0722,-0.23812 3.19335,-0.7899 3.70708,-1.25735c0.44446,-0.40443 1.72508,-0.44282 1.5,-1c-0.22042,-0.54565 -1.08627,0.45312 -1.6294,0.67968c0.53292,-2.66463 0.74582,-5.79398 0.4029,-8.51942c-0.027,-0.2146 -0.08345,-0.51996 -0.15505,-0.85431c0.02432,0.19886 -0.02437,0.37018 -0.2019,0.49669c-0.73092,0.52087 -1.74238,-0.51879 -2.5,-1c-1.14337,-0.72623 -2.12592,-1.68063 -3.14305,-2.57562zM386.44193,44.58809c-0.2537,-1.1326 -0.64271,-2.45244 -0.65307,-1.73869c-0.00784,0.54016 0.4931,1.20737 0.65307,1.7387zM380.2637,56.56725c-0.06353,0.13962 -0.12961,0.27815 -0.1979,0.41572c0.47996,0.48172 0.96955,0.86614 1.34722,0.4935c0.31567,-0.31148 -0.75093,-0.58732 -1.14932,-0.90922z" data-paper-data="{&quot;origPos&quot;:null}"/><path d="M76.63824,119.52311c0.11361,4.99871 -4.99871,5.11361 -4.99871,5.11361h-2.5c-12.52583,0 -25.01842,-0.21907 -37.5,0.68967v0.31033h-4c-0.47192,0 -0.92857,-0.06538 -1.36138,-0.18757c-1.45306,-0.35032 -3.29824,-1.36609 -3.60637,-4.24152c-0.00756,-0.06655 -0.01383,-0.13351 -0.01875,-0.20084c-0.23188,-2.91125 1.41086,-4.25139 2.78332,-4.85974c0.55095,-0.27088 1.15902,-0.44333 1.80129,-0.49441l9.90816,-0.90074l0.02116,0.23278c10.64321,-0.49249 21.29564,-0.34796 31.97259,-0.34796h2.5c0,0 4.8851,-0.11232 4.99871,4.88639z" data-paper-data="{&quot;origPos&quot;:null}"/><path d="M110.63953,134.63672c0,3.33334 0,6.66666 0,10c0,0 0,5 -5,5c-5,0 -5,-5 -5,-5c0,-8.33334 0,-16.66666 0,-25c0,-1.67654 -0.74851,-6.46135 0,-8c0.92816,-1.90793 2.35386,-3.54238 3.7265,-5.16025c1.46071,-1.72168 5.40983,-1.69243 6.7735,-1.83975c5.98964,-0.64705 12.78777,-0.22395 18.70711,0.55025c6.11719,0.87389 9.72216,3.2722 14.79289,6.44975c0.71841,0.45019 2.83694,0.94374 3.23607,1.52787c3.6207,5.29899 3.21929,6.55618 1.40632,11.82908c-0.29183,0.84876 -0.36535,1.86535 -1,2.5c-2.15398,2.15398 -5.05038,3.44427 -7.78543,4.78543c-0.20559,0.10082 0.75612,-0.3223 0.67858,-0.10684c-0.73584,2.04472 -3.91502,1.98931 -6.03554,2.46446c-3.08041,0.69025 -6.84715,1 -10.5,1c-5.07685,0 -9.3658,-1 -14,-1zM110.63953,124.63672c5.10072,0 9.01679,1 14,1c2.12676,0 3.98358,0.28742 5.91886,-0.24342c1.01988,-0.27975 2.03771,-0.58425 3.08114,-0.75658c0.32023,-0.05289 0.92917,-0.23499 1.27006,-0.22781c0.59585,-0.51184 1.20179,-1.01188 1.87299,-1.41457c0.76964,-0.46174 1.6541,-1.30001 2.5,-1c0.56804,0.20146 -0.7116,2.2116 -0.28543,1.78543c0.81796,-0.81795 1.28278,-1.96053 1.62038,-3.07019c-0.67088,-0.33742 -1.34153,-0.67576 -1.978,-1.07285c-3.67273,-2.29136 -5.69554,-3.90574 -10.20711,-4.55025c-4.07895,-0.65685 -8.1675,-0.44975 -12.29289,-0.44975c-1.66666,0 -3.44056,0.58816 -5,0c-0.27545,-0.10389 0.5654,-0.87789 0.2735,-0.83975c-0.25424,0.03322 -0.52774,0.32315 -0.7735,0.60074c0,2.74634 0,5.49267 0,8.23901c0,0.66666 0,1.33334 0,2z" data-paper-data="{&quot;origPos&quot;:null}"/><path d="M177.63955,134.63672c0,3.85385 -2.97043,4.73727 -4.33226,4.93977c0.07665,0.70331 0.18477,1.3916 0.33226,2.06023c0.09216,0.4178 0.10684,-0.849 0.16026,-1.2735l1,1.5c0,0 1.94759,-0.78941 0.67512,4.04596c-1.27247,4.83537 -8.99562,1.50104 -8.99562,1.50104l-1,-1.5c-0.61325,-1.4245 -1.40332,-2.78528 -1.83975,-4.2735c-0.23082,-0.78709 -0.17765,-1.61496 -0.10254,-2.44599c-1.36733,-0.55219 -2.89746,-1.78804 -2.89746,-4.55401c0,-2.87583 1.65408,-4.09759 3.0595,-4.61662c0.0079,-1.67773 0.00029,-3.3545 -0.04679,-5.02714c-0.04541,-1.61347 -0.42105,-3.6039 -0.62572,-5.4783c-0.20176,0.48514 -0.39601,0.98245 -0.57937,1.49567c-2.27024,6.35399 -4.58298,12.99832 -5.90471,19.60698c0,0 -0.98058,4.9029 -5.88349,3.92232c-4.90291,-0.98058 -3.92232,-5.88348 -3.92232,-5.88348c1.3757,-6.8785 3.73408,-13.77934 6.09528,-20.39302c1.26263,-3.5366 2.77773,-6.99937 4.80762,-10.15499v-1.47141c0,-2.76143 2.23857,-5 5,-5c1.1961,0 2.2941,0.41998 3.15458,1.12054l2.46889,1.97512c1.06716,0.00778 2.06367,1.02609 2.5,2c2.39396,5.34343 2.69465,11.74335 2.86382,17.54811c0.05035,1.7276 -0.04735,3.56609 -0.16733,5.44093c1.41846,0.24509 4.18004,1.19941 4.18004,4.9153z" data-paper-data="{&quot;origPos&quot;:null}"/><path d="M215.97898,150.05566c-4.41894,2.33944 -2.33944,0.58106 -2.33944,0.58106c-2.5,0 -6.5,0 -9,0c-3.49777,0 -7.00308,0.06357 -10.5,0c-2.24763,-0.04085 -4.9154,0.70102 -6.71267,-0.64929c-2.10049,-1.57813 -4.09187,-3.34372 -5.78733,-5.35071c-0.32267,-0.38195 -0.0089,-1.00008 0,-1.5c0.04604,-2.58692 0.73718,-4.95794 1,-7.5c0.40449,-3.91227 0.14892,-7.40378 1.52786,-11.23607c1.80099,-5.00523 4.73751,-9.92209 6.90308,-14.79462c0,0 2.03069,-4.56906 6.59975,-2.53836c4.56906,2.03069 2.53836,6.59975 2.53836,6.59975c-2.67904,6.02784 -6.91013,12.34594 -7.66616,18.94989c-0.26462,2.31149 -0.09199,4.42092 -0.47093,6.84142c-0.06913,0.4416 -0.14989,0.88386 -0.22296,1.32698c0.00123,0.0001 0.00245,0.00021 0.00367,0.00031c0.76152,0.0623 1.52351,-0.12958 2.28732,-0.14928c3.49379,-0.09013 7.00448,0 10.5,0c2.5,0 5,0 7.5,0h1.5c0,0 6.75838,7.0795 2.33944,9.41894z" data-paper-data="{&quot;origPos&quot;:null}"/><path d="M230.63955,101.63672c5,0 5,5 5,5c0,7.83334 0,17.16666 0,25c0,0 0,5 -5,5c-5,0 -5,-5 -5,-5c0,-7.83334 0,-15.66666 0,-23.5v-1.5c0,0 0,-5 5,-5z" data-paper-data="{&quot;origPos&quot;:null}"/><path d="M257.63951,106.63672c5,0 5,5 5,5c0,11.33334 0,23.66666 0,35c0,0 0,5 -5,5c-5,0 -5,-5 -5,-5c0,-11.33334 0,-22.66666 0,-34v-1c0,0 0,-5 5,-5z" data-paper-data="{&quot;origPos&quot;:null}"/><path d="M276.63635,110.45826c0.17846,4.99681 -4.99681,5.17846 -4.99681,5.17846h-1.5c-3.98146,0 -8.37434,-0.56675 -12.28732,-0.14929c-1.76925,0.18875 -3.44303,0.96434 -5.21268,1.14929c-2.38851,0.24962 -4.89501,0.0925 -7.3419,0.02571l-0.23924,0.71771l-2.89062,-0.96354c-0.10875,-0.03345 -0.21592,-0.0705 -0.32138,-0.11103c-1.43432,-0.48733 -3.20687,-1.69182 -3.20687,-4.66885c0,-2.97703 1.77255,-4.18152 3.20687,-4.66885c0.55662,-0.21391 1.16119,-0.33115 1.79313,-0.33115c8.89272,0 17.53809,-1 26.5,-1h1.5c0,0 4.81836,-0.17527 4.99681,4.82154z" data-paper-data="{&quot;origPos&quot;:null}"/><path d="M315.2211,154.01293c-4.37621,-2.41843 3.39901,-9.27911 3.39901,-9.27911l2.5,0.5c4.01347,1.06425 10.36851,1.22091 14.28335,-0.06923c0.70791,-0.23329 1.26238,-0.89291 2,-1c0.23182,-0.03365 -0.11204,0.83857 0.07582,0.69863c0.48192,-0.35898 0.41021,-1.38486 1,-1.5c0.41992,-0.08198 0.06809,1.69131 0.16025,1.2735c0.36111,-1.63707 0,-3.80878 0,-5.5c0,-0.5 0,-1 0,-1.5c0,-0.02787 -0.00138,-0.058 -0.00392,-0.09001c-0.46019,-0.47174 -0.90735,-0.98781 -1.40227,-1.34132c-4.99697,-4.19354 -12.09056,-3.51225 -16.06594,-9.3326c-0.05742,-0.08406 -0.11386,-0.16838 -0.16933,-0.25294c-0.24133,1.10367 -0.50371,2.09806 -0.71615,2.87383c-0.31222,1.14012 -1.30297,2.01073 -1.64238,3.14305c-0.50368,1.68034 -0.07636,3.54097 -0.52786,5.23607c-0.53207,1.99757 -3.88561,5.76132 -4.61518,6.40632c-0.67242,0.59448 -1.65124,0.70817 -2.5,1c-5.47189,1.88139 -11.48424,1.7387 -17.17895,0.78959c-1.90451,-0.63215 -3.89803,-1.04162 -5.71354,-1.89644c-2.51661,-1.18493 -4.14443,-4.76189 -5.10685,-7.17858c-0.94867,-2.38217 -1.9762,-4.79541 -2.35762,-7.35695c-0.62381,-4.18943 1.08249,-10.03159 3.46447,-13.53553c1.34887,-1.98423 2.01058,-1.66488 3.37528,-3.23797c1.4194,-1.63613 2.57284,-3.56615 4.3033,-4.86888c1.11399,-0.83864 2.50865,-1.17892 3.85695,-1.60153v-0.75609h2.9149c1.32828,-0.07397 3.11078,0.26604 4.27735,2.22395c0.22267,0.03831 0.44431,0.08258 0.66471,0.13366c1.75316,0.40637 3.34341,1.64238 5.14305,1.64238c1.52416,0.23751 3.10028,0.25198 4.57248,0.71254c0.9275,0.29016 1.75391,0.87727 2.5,1.5c1.2034,1.00442 2.41291,2.02368 3.5076,3.14681c0.99712,-2.97552 3.16742,-5.58141 6.43934,-7.26225c3.59347,-1.84602 9.02283,-1.0971 12.98058,-1.0971c0,0 5,0 5,5c0,5 -5,5 -5,5c-3.51198,0 -7.71027,-0.54582 -11.01942,0.9029c-0.32467,0.14214 1.14816,-0.20931 1.05495,0.13263c-0.18597,0.68221 -1.44606,0.79495 -1.5,1.5c-0.04561,0.59612 1.04171,-1.45829 1.46447,-1.03553c0.58926,0.58926 -0.17013,1.68422 0,2.5c0.03592,0.17225 0.35939,-0.37116 0.47214,-0.23607c0.72588,0.86976 1.06467,2.16581 2.0634,2.70053c0.24719,0.13235 -0.7294,-0.65321 -0.4544,-0.70788c0.51693,-0.10277 1,0.33333 1.5,0.5c4.33769,1.4459 6.84687,2.55722 10.82505,5.17475c1.16667,0.83333 2.68314,1.32174 3.5,2.5c3.00349,4.33233 3.64422,16.09888 -0.74594,19.84217c-1.20801,1.03001 -2.57757,1.8579 -3.92418,2.69863c-6.16064,3.84626 -15.80908,3.11577 -22.71665,1.93077l-2.5,-0.5c0,0 2.93836,1.89173 -1.43785,-0.5267zM296.56435,117.63672c-0.22596,0.27154 -0.55168,0.52313 -0.76462,0.7735c-0.82283,0.9675 -1.73987,1.85091 -2.62472,2.76203c-0.65684,0.67635 -1.39529,1.27666 -2,2c-0.17984,0.21512 0.65321,-0.7294 0.70788,-0.4544c0.23446,1.17927 -1.34615,3.28721 -1.5,4.5c-0.27652,2.17978 1.69078,6.5487 2.89897,8.56191c0.17816,0.29687 1.60137,2.23451 2.17961,0.42498c4.49613,0.74936 10.44416,1.39086 14.32105,-1.21041c0.46101,-0.30932 -1.41526,0.92424 -1.61518,0.40632c-0.1673,-0.43339 0.1611,-0.83224 0.49543,-1.2403c-0.00824,-0.00532 -0.01603,-0.01311 -0.02329,-0.02363c-0.28424,-0.41135 -0.1129,-1.01291 0,-1.5c0.94229,-4.06518 2.95156,-7.57151 3.06803,-11.82199c0.00384,-0.14001 -0.35943,0.16155 -0.41874,0.03467c-0.29101,-0.62252 0.09208,-1.65119 -0.5,-2c-0.45674,-0.26908 0.30814,1.56023 -0.22177,1.57479c-1.39926,0.03845 -3.53568,-2.78905 -1.92752,-0.78746c-3.25311,0 -5.82841,-1.4498 -8.85695,-2.35762c-0.16133,-0.04836 0.5177,0.30733 0.35695,0.35762c-0.95438,0.29859 -2,0 -3,0zM309.12032,133.51005c0.01755,-0.03623 0.03333,-0.07269 0.04704,-0.1094c0.03427,-0.09174 0.00883,-0.0204 -0.04704,0.1094z" data-paper-data="{&quot;origPos&quot;:null}"/><path d="M445.63951,126.63672c0,5 -5,5 -5,5c-3.83333,0 -9.66667,0 -13.5,0c-16.16667,0 -32.33333,0 -48.5,0h-1.8l-0.18058,0.9029l-4.90917,-0.98183c-0.31214,-0.05606 -0.61423,-0.1411 -0.90338,-0.25222c-1.43432,-0.48733 -3.20687,-1.69182 -3.20687,-4.66885c0,-2.97703 1.77255,-4.18152 3.20687,-4.66885c0.55662,-0.21391 1.16119,-0.33115 1.79313,-0.33115c2,0 4,0 6,0c16.16667,0 32.33333,0 48.5,0c3.83333,0 7.66667,0 11.5,0h2c0,0 5,0 5,5z" data-paper-data="{&quot;origPos&quot;:null}"/></g></g></svg>