<svg version="1.1" xmlns="http://www.w3.org/2000/svg" xmlns:xlink="http://www.w3.org/1999/xlink" width="156" height="156"><defs><radialGradient cx="233.65" cy="171.36667" r="78" gradientUnits="userSpaceOnUse" id="color-1"><stop offset="0" stop-color="#00a9ff"/><stop offset="1" stop-color="#004dff"/></radialGradient></defs><g transform="translate(-156.64999,-98.36667)"><g data-paper-data="{&quot;isPaintingLayer&quot;:true}" fill="none" fill-rule="nonzero" stroke="none" stroke-width="none" stroke-linecap="butt" stroke-linejoin="miter" stroke-miterlimit="10" stroke-dasharray="" stroke-dashoffset="0" font-family="none" font-weight="none" font-size="none" text-anchor="none" style="mix-blend-mode: normal"><path d="M156.64999,176.36667c0,-43.07821 34.92179,-78 78,-78c43.07821,0 78,34.92179 78,78c0,43.07821 -34.92179,78 -78,78c-43.07821,0 -78,-34.92179 -78,-78z" data-paper-data="{&quot;origPos&quot;:null}" fill="url(#color-1)" stroke-width="0"/><path d="M263.23557,223.64625c-4.27958,2.58558 -6.86516,-1.694 -6.86516,-1.694l-1.72042,-3.58558c0,-0.16667 0,-0.33333 0,-0.5c-1.07634,-0.88157 -2.18427,-1.73497 -3.16025,-2.7265c-2.40508,-2.44338 -3.52368,-6.25999 -5.12721,-9.20102c-1.18641,-2.176 -2.39753,-3.66702 -3.45595,-5.99134c-1.62111,-3.55999 -2.04106,-8.0414 -4.09769,-11.38022c-1.63613,-2.65615 -4.14128,-4.70267 -5.80128,-7.34397c-0.47759,-0.75991 -0.88852,-1.60942 -1,-2.5c-0.03043,-0.24307 0.78696,-0.1592 0.64238,-0.35695c-0.37042,-0.50666 -0.84002,-0.91535 -1.35277,-1.28141c-3.13934,2.52707 -6.26384,5.04728 -9.60972,7.33922c-0.01693,3.14883 -0.03751,6.29702 -0.03751,9.44218c0,9 0,18 0,27v1.5c0,0 0.1638,4.83065 -4.83342,4.99723c-4.99723,0.16657 -5.16658,-4.99723 -5.16658,-4.99723c0,-9 0,-19.5 0,-28.5c0,-2.80997 0.01812,-5.62252 0.03597,-8.43579c-0.1104,-0.1529 -0.21835,-0.31659 -0.32344,-0.49174c-1.53541,-2.55902 -0.62702,-4.50709 0.35494,-5.66188c0.00869,-3.17744 -0.00007,-6.35404 -0.05275,-9.52712c-0.15007,-9.03919 -1.01568,-18.55972 -1.94669,-27.56149c-0.34363,-3.32253 -1.06803,-6.46687 -1.06803,-9.82199c0,0 0,-5 5,-5c5,0 5,5 5,5c0,2.84626 0.63533,5.35079 0.93197,8.17801c0.97508,9.29352 1.87563,19.10033 2.0533,28.43851c0.01919,1.00872 0.03393,2.01778 0.04502,3.02709c3.59891,-2.83469 7.08124,-5.80888 10.84624,-8.54795c2.0605,-1.49903 4.34469,-2.68377 6.34998,-4.25591c2.7509,-2.15669 4.14997,-4.0662 7.00674,-6.18767c1.65806,-1.23129 3.82279,-1.70922 5.39187,-3.05206c0.15522,-0.13284 -0.22062,-0.4194 -0.12512,-0.60001c0.38956,-0.73667 0.90611,-1.41541 1.5,-2c1.26477,-1.24495 2.76335,-2.18483 4.2265,-3.16026l0.7038,-0.78651c0,0 3.94676,-3.0697 7.01646,0.87706c3.0697,3.94676 -0.87706,7.01647 -0.87706,7.01647l-1.2962,1.21349c-2.64592,1.76395 -3.66586,3.89164 -6.39862,6.23974c-1.00527,0.86378 -2.50139,0.97583 -3.55659,1.77784c-4.5306,3.44352 -8.76849,7.11624 -13.36177,10.48337c1.27947,2.02253 1.87662,4.46561 3.18586,6.48184c1.13815,1.75276 3.10395,2.87586 4.19872,4.65603c2.82213,4.58897 3.72221,9.81102 5.90231,14.61978c0.65347,1.44139 1.786,2.61942 2.54405,4.00866c1.48016,2.71262 2.56494,6.57424 4.87279,8.79898c0.80348,0.77455 2.28605,0.80453 2.83975,1.7735c0.96786,1.69375 1.33333,3.66667 2,5.5c0,0.5 0,1 0,1.5l0.27958,-1.58558c0,0 2.58558,4.27958 -1.694,6.86516z" data-paper-data="{&quot;origPos&quot;:null}" fill="#000000" stroke-width="0.5"/></g></g></svg>