<svg version="1.1" xmlns="http://www.w3.org/2000/svg" xmlns:xlink="http://www.w3.org/1999/xlink" width="52.67266" height="87.88814" viewBox="0,0,52.67266,87.88814"><g transform="translate(-215.56413,-144.80948)"><g data-paper-data="{&quot;isPaintingLayer&quot;:true}" fill="none" fill-rule="nonzero" stroke="none" stroke-width="none" stroke-linecap="none" stroke-linejoin="miter" stroke-miterlimit="10" stroke-dasharray="" stroke-dashoffset="0" font-family="none" font-weight="none" font-size="none" text-anchor="none" style="mix-blend-mode: normal"><g data-paper-data="{&quot;origPos&quot;:null,&quot;origRot&quot;:0}" stroke-width="3.5"><path d="M242.17404,209.93822l-17.19382,-7.98497" data-paper-data="{&quot;origPos&quot;:null}" fill="none" stroke="#e58500" stroke-linecap="round"/><path d="M221.72143,201.43273c-1.28591,-1.34936 -1.23448,-3.48567 0.11488,-4.77159c1.34936,-1.28591 3.48567,-1.23448 4.77159,0.11488c1.28591,1.34936 1.23448,3.48567 -0.11488,4.77159c-1.34936,1.28591 -3.48567,1.23448 -4.77159,-0.11488z" data-paper-data="{&quot;origPos&quot;:null}" fill="#ffffff" stroke="#e6e6e6" stroke-linecap="butt"/></g><path d="M266.48679,185.16467l-8.55225,-4.53502l-14.56437,4.25164" data-paper-data="{&quot;origPos&quot;:null,&quot;origRot&quot;:0}" fill="none" stroke="#e58500" stroke-width="3.5" stroke-linecap="round"/><path d="M242.12723,208.46591l1.5,-27.25" data-paper-data="{&quot;origPos&quot;:null}" fill="none" stroke="#e58500" stroke-width="3.5" stroke-linecap="round"/><path d="M261.64358,220.24053l-4.91827,3.05433l-5.67329,-8.31422l-8.71217,-5.99255" data-paper-data="{&quot;origPos&quot;:null,&quot;origRot&quot;:0}" fill="none" stroke="#e58500" stroke-width="3.5" stroke-linecap="round"/><path d="M246.6804,228.06268l-5.77832,2.00589l1.81158,-10.34192l-0.86601,-10.53861" data-paper-data="{&quot;origPos&quot;:null,&quot;origRot&quot;:0}" fill="none" stroke="#e58500" stroke-width="3.5" stroke-linecap="round"/><g stroke-width="2"><path d="M241.96581,154.92765l12.4025,-8.44409l2.91342,14.41937z" data-paper-data="{&quot;origPos&quot;:null,&quot;index&quot;:null,&quot;origRot&quot;:0}" fill="#ff9500" stroke="#e58500" stroke-linecap="round"/><path d="M228.75223,165.59091l-3.125,-14.375l14.75,2.75z" data-paper-data="{&quot;origPos&quot;:null}" fill="#ff9500" stroke="#e58500" stroke-linecap="round"/><path d="M228.6784,168.12891c0,-8.37632 6.79035,-15.16666 15.16666,-15.16666c8.37632,0 15.16667,6.79035 15.16667,15.16666c0,8.37632 -6.79035,15.16667 -15.16667,15.16667c-8.37632,0 -15.16666,-6.79035 -15.16666,-15.16667z" fill="#ff9500" stroke="#e58500" stroke-linecap="butt"/><path d="M226.71056,173.33268l34.33334,-2.20833c0,0 -3.49892,11.29695 -15.70834,12.41666c-13.09028,1.20049 -18.625,-10.20833 -18.625,-10.20833z" data-paper-data="{&quot;origPos&quot;:null}" fill="#ffffff" stroke="#e6e6e6" stroke-linecap="round"/><path d="M233.12723,167.21591c0,-3.38274 2.74226,-6.125 6.125,-6.125c3.38275,0 6.125,2.74226 6.125,6.125c0,3.38275 -2.74225,6.125 -6.125,6.125c-3.38274,0 -6.125,-2.74225 -6.125,-6.125z" data-paper-data="{&quot;origPos&quot;:null}" fill="#ffffff" stroke="#e58500" stroke-linecap="butt"/><path d="M245.62723,166.46591c0,-3.38274 2.74226,-6.125 6.125,-6.125c3.38275,0 6.125,2.74226 6.125,6.125c0,3.38275 -2.74225,6.125 -6.125,6.125c-3.38274,0 -6.125,-2.74225 -6.125,-6.125z" data-paper-data="{&quot;origPos&quot;:null}" fill="#ffffff" stroke="#e58500" stroke-linecap="butt"/><path d="M244.87723,172.52841c0,-0.72487 0.58763,-1.3125 1.3125,-1.3125c0.72487,0 1.3125,0.58763 1.3125,1.3125c0,0.72487 -0.58763,1.3125 -1.3125,1.3125c-0.72487,0 -1.3125,-0.58763 -1.3125,-1.3125z" data-paper-data="{&quot;origPos&quot;:null}" fill="#6e4000" stroke="#6e4000" stroke-linecap="butt"/><path d="M233.12723,167.71591l-4.5,-0.625" data-paper-data="{&quot;origPos&quot;:null}" fill="none" stroke="#e58500" stroke-linecap="round"/></g><path d="M243.03256,186.21225l-13.78724,-2.5412l-11.93119,7.5217" data-paper-data="{&quot;origPos&quot;:null,&quot;origRot&quot;:0}" fill="none" stroke="#e58500" stroke-width="3.5" stroke-linecap="round"/></g></g></svg>