<svg version="1.1" xmlns="http://www.w3.org/2000/svg" xmlns:xlink="http://www.w3.org/1999/xlink" width="93.28223" height="98.8175" viewBox="0,0,93.28223,98.8175"><defs><radialGradient cx="224.22257" cy="142.17022" r="99.1548" gradientUnits="userSpaceOnUse" id="color-1"><stop offset="0" stop-color="#ff9999"/><stop offset="1" stop-color="#ff0000"/></radialGradient></defs><g transform="translate(-193.73863,-130.7878)"><g data-paper-data="{&quot;isPaintingLayer&quot;:true}" fill="none" fill-rule="nonzero" stroke="#000000" stroke-width="none" stroke-linecap="round" stroke-linejoin="miter" stroke-miterlimit="10" stroke-dasharray="" stroke-dashoffset="0" font-family="none" font-weight="none" font-size="none" text-anchor="none" style="mix-blend-mode: normal"><g data-paper-data="{&quot;origPos&quot;:null}"><path d="M249.66227,131.86852c11.8063,1.1845 24.9755,3.3308 33.6374,11.3476c4.6223,4.1094 2.4727,13.3653 -1.0807,18.3722c-12.1884,17.1748 -38.8562,29.7609 -44.0393,45.3903c-2.3398,7.0603 19.1379,-1.3039 28.3689,0c3.8641,0.5468 8.9067,0.7268 10.537,5.1334c1.7372,3.9365 1.8507,10.7083 -1.8913,12.6985c-8.4842,4.5076 -18.9936,3.7571 -28.6391,3.5123c-9.5622,-0.3809 -20.6785,0.449 -28.3689,-5.4036c-5.0848,-3.8695 -6.2703,-13.1778 -3.2421,-18.9126c8.2534,-15.6272 30.8934,-25.652 34.583,-40.2568c1.6487,-6.5308 -16.3875,1.1147 -23.7758,-1.6211c-3.2573,-1.2018 -4.8519,-5.4971 -5.4036,-8.9159c-0.8641,-5.3475 -3.0639,-12.9125 1.3509,-16.2109c7.5866,-5.6613 18.5435,-6.079 27.9636,-5.1334z" data-paper-data="{&quot;origPos&quot;:null}" id="ID0.18633843073621392" fill="url(#color-1)" stroke-width="2.16144"/><path d="M210.62495,179.00122c4.9432,-1.3271 11.3318,-1.1007 15.13,2.2966c2.6483,2.3738 1.9502,8.2005 -0.6754,10.537c-2.3873,2.1209 -6.4022,-1.5708 -9.7265,-1.6211c-1.9523,0.0043 -4.378,-0.0103 -5.8089,1.486c-1.2444,1.3071 -1.6351,4.0829 -0.4052,5.4036c2.6104,2.8039 7.0598,2.9563 10.2668,4.9983c3.4778,2.215 8.1054,3.9884 9.5914,7.8352c1.3606,3.5254 0.335,8.5302 -2.2965,11.3476c-3.3924,3.6307 -8.7582,5.0853 -13.6441,5.8089c-6.0169,0.8937 -12.6747,1.3747 -18.2372,-1.0807c-1.9842,-0.8781 0.4258,-4.5396 1.486,-6.4844c0.7841,-1.4373 2.1134,-2.6558 3.6474,-2.9719c2.1555,-0.4431 4.4067,0.7689 6.6195,1.0807c1.7448,0.2318 3.5988,0.8645 5.4036,0.6754c1.8604,-0.1994 3.9619,-0.5209 5.4036,-1.7561c1.032,-0.8852 1.9555,-2.7748 1.2158,-3.9177c-1.68,-2.6191 -4.7579,-4.0775 -7.43,-5.6737c-2.6067,-1.5574 -5.7673,-2.1312 -8.2405,-3.9176c-2.5029,-1.6838 -5.6759,-3.4373 -6.4843,-6.3493c-0.81,-2.919 0.4761,-6.2082 2.2965,-8.5107c3.1492,-3.9851 7.029,-8.0135 11.888,-9.1861z" data-paper-data="{&quot;origPos&quot;:null}" id="ID0.29340226808562875" fill="#ffff00" stroke-width="2.16144"/></g></g></g></svg>