<svg version="1.1" width="260.07098627090454" height="100.03174829483032" viewBox="0.69049072265625 0.3383810520172119 260.07098627090454 100.03174829483032" xmlns="http://www.w3.org/2000/svg" xmlns:xlink="http://www.w3.org/1999/xlink">
  <defs>
    <radialGradient id="grad_1" cx="0.15039999999999998" cy="0.11019999999999999" r="1.15674">
      <stop offset="0" stop-color="#FF9999" stop-opacity="1"/>
      <stop offset="1" stop-color="#FF0000" stop-opacity="1"/>
    </radialGradient>
    <radialGradient id="grad_2" cx="0.8151999999999999" cy="0.1324" r="1.12788">
      <stop offset="0" stop-color="#FFFF99" stop-opacity="1"/>
      <stop offset="1" stop-color="#FFFF00" stop-opacity="1"/>
    </radialGradient>
    <radialGradient id="grad_3" cx="0.8162" cy="0.1253" r="1.13711">
      <stop offset="0" stop-color="#FFFF99" stop-opacity="1"/>
      <stop offset="1" stop-color="#FFFF00" stop-opacity="1"/>
    </radialGradient>
    <radialGradient id="grad_4" cx="0.5409" cy="0.0745" r="1.20315">
      <stop offset="0" stop-color="#FFFF99" stop-opacity="1"/>
      <stop offset="1" stop-color="#FFFF00" stop-opacity="1"/>
    </radialGradient>
    <radialGradient id="grad_5" cx="0.2047" cy="0.11019999999999999" r="1.15674">
      <stop offset="0" stop-color="#FFFF99" stop-opacity="1"/>
      <stop offset="1" stop-color="#FFFF00" stop-opacity="1"/>
    </radialGradient>
  <radialGradient id="grad_1-.5403600931167603,0,0,0.5403600931167603,1.45,-46.55" cx="197.9632" cy="12.1139" r="99.1548" gradientUnits="userSpaceOnUse">
      <stop offset="0" stop-color="#FF9999" stop-opacity="1"/>
      <stop offset="1" stop-color="#FF0000" stop-opacity="1"/>
    </radialGradient><radialGradient id="grad_2-.5403600931167603,0,0,0.5403600931167603,1.45,-46.55" cx="146.9458" cy="61.7771" r="39.2925" gradientUnits="userSpaceOnUse">
      <stop offset="0" stop-color="#FFFF99" stop-opacity="1"/>
      <stop offset="1" stop-color="#FFFF00" stop-opacity="1"/>
    </radialGradient><radialGradient id="grad_3-.5403600931167603,0,0,0.5403600931167603,1.45,-46.55" cx="172.3331" cy="59.6237" r="41.433" gradientUnits="userSpaceOnUse">
      <stop offset="0" stop-color="#FFFF99" stop-opacity="1"/>
      <stop offset="1" stop-color="#FFFF00" stop-opacity="1"/>
    </radialGradient><radialGradient id="grad_4-.5403600931167603,0,0,0.5403600931167603,1.45,-46.55" cx="188.3712" cy="61.0919" r="38.9257" gradientUnits="userSpaceOnUse">
      <stop offset="0" stop-color="#FFFF99" stop-opacity="1"/>
      <stop offset="1" stop-color="#FFFF00" stop-opacity="1"/>
    </radialGradient><radialGradient id="grad_5-.5403600931167603,0,0,0.5403600931167603,1.45,-46.55" cx="201.7521" cy="54.2515" r="45.3514" gradientUnits="userSpaceOnUse">
      <stop offset="0" stop-color="#FFFF99" stop-opacity="1"/>
      <stop offset="1" stop-color="#FFFF00" stop-opacity="1"/>
    </radialGradient></defs>
  <!-- Exported by Scratch - http://scratch.mit.edu/ -->
  <path id="ID0.18633843073621392" fill="url(#grad_1-.5403600931167603,0,0,0.5403600931167603,1.45,-46.55)" stroke="#000000" stroke-width="2.161440372467041" stroke-linecap="round" d="M 223.4029 1.8122 C 235.2092 2.9967 248.3784 5.143 257.0403 13.1598 C 261.6626 17.2692 259.513 26.5251 255.9596 31.532 C 243.7712 48.7068 217.1034 61.2929 211.9203 76.9223 C 209.5805 83.9826 231.0582 75.6184 240.2892 76.9223 C 244.1533 77.4691 249.1959 77.6491 250.8262 82.0557 C 252.5634 85.9922 252.6769 92.764 248.9349 94.7542 C 240.4507 99.2618 229.9413 98.5113 220.2958 98.2665 C 210.7336 97.8856 199.6173 98.7155 191.9269 92.8629 C 186.8421 88.9934 185.6566 79.6851 188.6848 73.9503 C 196.9382 58.3231 219.5782 48.2983 223.2678 33.6935 C 224.9165 27.1627 206.8803 34.8082 199.492 32.0724 C 196.2347 30.8706 194.6401 26.5753 194.0884 23.1565 C 193.2243 17.809 191.0245 10.244 195.4393 6.9456 C 203.0259 1.2843 213.9828 0.8666 223.4029 1.8122 Z "/>
  <path id="ID0.29340226808562875" fill="#FFFF00" stroke="#000000" stroke-width="2.161440372467041" stroke-linecap="round" d="M 18.3363 46.527 C 23.2795 45.1999 29.6681 45.4263 33.4663 48.8236 C 36.1146 51.1974 35.4165 57.0241 32.7909 59.3606 C 30.4036 61.4815 26.3887 57.7898 23.0644 57.7395 C 21.1121 57.7438 18.6864 57.7292 17.2555 59.2255 C 16.0111 60.5326 15.6204 63.3084 16.8503 64.6291 C 19.4607 67.433 23.9101 67.5854 27.1171 69.6274 C 30.5949 71.8424 35.2225 73.6158 36.7085 77.4626 C 38.0691 80.988 37.0435 85.9928 34.412 88.8102 C 31.0196 92.4409 25.6538 93.8955 20.7679 94.6191 C 14.751 95.5128 8.0932 95.9938 2.5307 93.5384 C 0.5465 92.6603 2.9565 88.9988 4.0167 87.054 C 4.8008 85.6167 6.1301 84.3982 7.6641 84.0821 C 9.8196 83.639 12.0708 84.851 14.2836 85.1628 C 16.0284 85.3946 17.8824 86.0273 19.6872 85.8382 C 21.5476 85.6388 23.6491 85.3173 25.0908 84.0821 C 26.1228 83.1969 27.0463 81.3073 26.3066 80.1644 C 24.6266 77.5453 21.5487 76.0869 18.8766 74.4907 C 16.2699 72.9333 13.1093 72.3595 10.6361 70.5731 C 8.1332 68.8893 4.9602 67.1358 4.1518 64.2238 C 3.3418 61.3048 4.6279 58.0156 6.4483 55.7131 C 9.5975 51.728 13.4773 47.6996 18.3363 46.527 Z "/>
  <path id="ID0.5083110402338207" fill="#FFFF00" stroke="#000000" stroke-width="2.161440372467041" stroke-linecap="round" d="M 46.1648 55.1728 C 50.7757 54.5768 56.3733 55.4613 59.5387 58.8202 C 61.544 60.9514 60.2196 65.7833 57.7825 67.1958 C 54.6004 69.0714 50.1959 64.8479 46.8402 66.2502 C 44.1428 67.3774 43.0702 70.9637 42.3823 73.8152 C 41.8819 76.3355 42.2958 79.2053 43.463 81.5153 C 44.434 83.4709 46.2718 85.112 48.3262 85.433 C 51.6516 85.9517 55.1796 82.314 58.1878 83.6768 C 60.7929 84.9488 63.1364 89.3603 61.5651 91.6471 C 59.5755 94.5396 54.7084 94.6088 51.1631 94.2138 C 46.6436 93.7102 41.6463 92.2718 38.3296 89.0804 C 35.0177 85.8923 33.3026 81.1484 32.926 76.6521 C 32.5094 71.6884 33.2594 66.2594 35.898 62.0624 C 38.1172 58.5354 42.0829 55.704 46.1648 55.1728 Z "/>
  <path id="ID0.28920365730300546" fill="#FFFF00" stroke="#000000" stroke-width="2.161440372467041" stroke-linecap="round" d="M 65.0774 48.9586 C 68.4655 48.4156 72.4647 48.3583 75.2092 50.3095 C 78.507 52.8022 80.3496 57.0981 81.4233 60.9817 C 82.1479 63.6062 82.3203 67.2239 80.3426 69.0871 C 77.3803 71.8759 70.1525 69.8473 68.7248 72.8696 C 67.5793 75.2947 72.9629 77.6664 75.0741 80.1644 C 78.0007 83.626 81.6805 86.6261 83.8549 90.5664 C 84.4725 91.6865 84.2791 93.1163 83.1795 94.3489 C 81.9334 95.5555 79.505 96.9151 78.1811 95.8349 C 73.8237 92.0086 70.1789 81.2317 68.3196 81.5153 C 66.4602 81.799 70.695 92.141 69.2652 97.0507 C 68.7702 98.7485 64.8267 98.0704 63.9967 96.3752 C 61.0301 90.2832 60.245 83.2585 59.5387 76.517 C 58.7282 68.7769 57.8722 60.8455 59.4036 53.1464 C 59.8618 50.8434 62.7598 49.332 65.0774 48.9586 Z "/>
  <path id="ID0.627641701605171" fill="none" stroke="#000000" stroke-width="2.161440372467041" stroke-linecap="round" d="M 69.1301 57.3342 L 69.9406 62.4676 "/>
  <path id="ID0.5877409819513559" fill="#FFFF00" stroke="#000000" stroke-width="2.161440372467041" stroke-linecap="round" d="M 89.934 51.2552 C 90.8812 49.9486 93.041 49.3909 94.527 49.7692 C 98.1301 50.6959 103.4095 51.1974 104.5237 54.7675 C 108.6818 68.1139 109.8668 82.5593 108.9817 96.5103 C 108.7607 99.9984 103.4646 99.8525 101.957 97.9963 C 97.914 93.0191 99.4335 85.0504 95.6077 80.0294 C 94.1963 78.157 89.8097 78.5439 88.7182 80.5697 C 86.0628 85.4989 88.971 92.3696 86.2865 97.3209 C 85.2852 99.163 81.3406 98.0401 80.0724 96.3752 C 77.7991 93.3854 76.7449 89.243 77.3706 85.568 C 78.6129 77.5215 82.6499 70.09 85.476 62.4676 C 86.8712 58.7003 87.5645 54.5206 89.934 51.2552 Z "/>
  <path id="ID0.05790058057755232" fill="none" stroke="#000000" stroke-width="2.161440372467041" stroke-linecap="round" d="M 95.4727 60.9817 L 93.7165 69.8976 "/>
  <path id="ID0.4650879171676934" fill="#FFFF00" stroke="#000000" stroke-width="2.161440372467041" stroke-linecap="round" d="M 106.8202 53.2815 C 113.2678 50.3933 121.645 51.2806 128.1644 54.2272 C 131.2483 55.6505 132.6375 61.2383 130.8662 64.2238 C 129.136 67.145 121.9768 62.9594 120.8696 66.2502 C 117.9333 74.9932 123.9318 85.1541 121.1398 93.9436 C 120.2195 96.84 113.0544 96.84 112.0887 93.9436 C 109.127 85.5135 114.1702 75.7578 111.8185 67.0607 C 111.1236 64.4897 105.0646 67.3876 104.1184 64.8993 C 102.7135 61.2005 103.1939 54.9042 106.8202 53.2815 Z "/>
  <path id="ID0.24011557875201106" fill="url(#grad_2-.5403600931167603,0,0,0.5403600931167603,1.45,-46.55)" stroke="#000000" stroke-width="2.161440372467041" stroke-linecap="round" d="M 136.9453 56.7939 C 141.5281 56.2476 147.2494 56.5799 150.4543 59.9009 C 152.6049 62.1321 151.4405 67.3341 148.8332 68.8169 C 145.3268 70.9302 140.4349 66.5149 136.6751 68.0063 C 133.9787 69.0757 132.7478 72.6929 132.3522 75.5714 C 132.0253 78.7811 132.8926 82.3059 134.6488 85.0277 C 135.7089 86.6515 137.9158 87.1762 139.7822 87.3242 C 142.8136 87.5647 146.3022 84.6316 149.1034 86.1084 C 151.3707 87.3701 153.8245 92.3604 151.535 93.6734 C 146.594 96.5039 139.7157 96.2855 134.2435 94.484 C 129.8617 93.0412 126.3931 89.0604 124.2468 84.8926 C 122.3442 81.1954 122.4561 76.6186 123.031 72.4643 C 123.5255 68.8947 125.072 65.3829 127.489 62.6027 C 129.9152 59.8156 133.2941 57.2283 136.9453 56.7939 Z "/>
  <path id="ID0.4349830620922148" fill="url(#grad_3-.5403600931167603,0,0,0.5403600931167603,1.45,-46.55)" stroke="#000000" stroke-width="2.161440372467041" stroke-linecap="round" d="M 159.5053 55.5781 C 162.4665 58.777 159.0774 64.8496 161.5317 68.4116 C 162.9571 70.4774 167.7766 71.3393 168.9616 69.0871 C 171.0609 65.2964 166.777 60.176 168.2862 55.9833 C 168.9281 54.2012 172.983 53.7511 173.96 55.5781 C 176.8979 61.3934 176.9692 68.4213 177.3372 74.8959 C 177.7079 81.4208 178.3028 88.3368 176.1214 94.484 C 175.5313 96.1451 171.5278 95.5669 170.8529 93.9436 C 168.7104 88.7724 171.4597 82.3486 168.9616 77.4626 C 168.0441 75.5746 163.6013 76.2031 162.8826 78.1381 C 160.9908 83.2407 165.2223 89.8099 162.6124 94.484 C 161.1383 97.122 155.3132 97.6175 153.5614 95.1594 C 149.6416 89.6596 149.2925 82.1297 148.8332 75.4363 C 148.4036 69.1616 147.86 62.1705 150.8596 56.6588 C 152.2461 54.1104 157.5346 53.449 159.5053 55.5781 Z "/>
  <path id="ID0.6457685097120702" fill="url(#grad_4-.5403600931167603,0,0,0.5403600931167603,1.45,-46.55)" stroke="#000000" stroke-width="2.161440372467041" stroke-linecap="round" d="M 182.6057 58.4149 C 187.9504 58.0659 193.9571 57.8173 198.5463 60.5764 C 200.4716 61.7344 199.3536 66.107 197.4656 67.1958 C 194.2737 68.9352 189.8579 65.766 186.6584 67.1958 C 185.1757 67.8599 185.0255 70.9021 186.2532 72.059 C 188.7253 74.3648 193.6858 72.8847 195.8445 75.4363 C 197.0852 76.9023 195.5603 80.0996 193.8182 80.8399 C 191.0807 82.0017 187.8267 79.483 184.9023 80.2995 C 183.7448 80.6237 183.0683 83.164 184.0917 83.8119 C 187.6208 86.016 193.4308 84.1555 196.1147 87.3242 C 198.0308 89.5872 197.5034 95.3783 194.6287 96.1051 C 188.7891 97.5808 179.443 97.6046 176.9319 92.0524 C 172.735 82.8581 177.2832 71.6981 178.9583 61.6571 C 179.3771 59.1471 180.9403 58.5246 182.6057 58.4149 Z "/>
  <path id="ID0.457980421371758" fill="url(#grad_5-.5403600931167603,0,0,0.5403600931167603,1.45,-46.55)" stroke="#000000" stroke-width="2.161440372467041" stroke-linecap="round" d="M 204.4903 48.9586 C 207.7476 48.4172 211.7679 48.7755 214.0817 51.1201 C 217.7426 54.6508 219.9868 59.8307 220.7011 64.8993 C 221.0777 67.5686 219.435 70.6309 217.1888 72.1941 C 215.1208 73.632 212.1196 71.978 209.6237 72.3292 C 208.2669 72.5205 205.0334 72.0396 205.8412 73.9503 C 208.9758 81.3527 216.6419 86.5347 218.9449 94.3489 C 219.622 96.647 214.8182 99.8687 213.001 98.4016 C 208.2528 94.5661 206.0541 82.6328 203.9499 82.461 C 201.8566 82.2902 205.6164 92.9083 203.5447 97.3209 C 202.7141 99.0879 198.2826 99.3316 197.8709 95.8349 C 196.2244 81.8493 196.6589 67.4454 198.6814 53.5517 C 199.1872 50.0783 202.0576 49.3628 204.4903 48.9586 Z "/>
  <path id="ID0.8514218465425074" fill="none" stroke="#000000" stroke-width="2.161440372467041" stroke-linecap="round" d="M 209.4886 57.3342 L 208.4079 64.2238 "/>
</svg>