<svg version="1.1" width="150.26410268172893" height="134.6577260337797" viewBox="1.756449826432902 0.9324690181748454 150.26410268172893 134.6577260337797" xmlns="http://www.w3.org/2000/svg" xmlns:xlink="http://www.w3.org/1999/xlink">
  <defs>
    <radialGradient id="grad_1" cx="0.3096" cy="0.12560000000000002" r="1.13672">
      <stop offset="0" stop-color="#FFE9CC" stop-opacity="1"/>
      <stop offset="1" stop-color="#FF9400" stop-opacity="1"/>
    </radialGradient>
    <radialGradient id="grad_2" cx="0.4379" cy="0.3299" r="0.87113">
      <stop offset="0" stop-color="#7F00FF" stop-opacity="1"/>
      <stop offset="1" stop-color="#6600CC" stop-opacity="1"/>
    </radialGradient>
  <radialGradient id="grad_1-.607860088348389,-0.11806042492389679,0.11806042492389679,6.607860088348389,-1519.4,-715.25" cx="33.4931" cy="20.8627" r="128.3381" gradientUnits="userSpaceOnUse">
      <stop offset="0" stop-color="#FFE9CC" stop-opacity="1"/>
      <stop offset="1" stop-color="#FF9400" stop-opacity="1"/>
    </radialGradient><radialGradient id="grad_2-.885226726531982,-0.12301604449748993,0.12301604449748993,6.885226726531982,-1592.6,-752.1" cx="103.1103" cy="49.8708" r="90.5328" gradientUnits="userSpaceOnUse">
      <stop offset="0" stop-color="#7F00FF" stop-opacity="1"/>
      <stop offset="1" stop-color="#6600CC" stop-opacity="1"/>
    </radialGradient></defs>
  <!-- Exported by Scratch - http://scratch.mit.edu/ -->
  <path id="ID0.37393136508762836" fill="url(#grad_1-.607860088348389,-0.11806042492389679,0.11806042492389679,6.607860088348389,-1519.4,-715.25)" stroke="#995900" stroke-width="6.608914677246241" stroke-linecap="round" d="M 99.7573 27.2045 C 98.2207 19.6371 90.8508 13.3571 84.2463 9.9652 C 75.6471 5.5447 65.5164 3.8287 55.7263 4.5258 C 45.3233 5.3264 33.4751 7.3756 25.4954 14.3199 C 18.6027 20.3259 14.954 30.3126 15.0352 39.2941 C 14.9 47.6383 20.564 55.3633 25.3543 61.9142 C 29.9482 68.2041 37.5273 72.1338 42.818 77.4661 C 46.0152 80.6809 50.8229 83.0275 51.5971 87.8852 C 52.1314 91.1476 49.7123 95.5996 46.128 96.2454 C 41.2906 97.0457 37.3485 90.982 32.7943 89.8736 C 27.4237 88.5815 21.1716 86.4127 16.2451 88.5168 C 11.2267 90.6556 5.5344 95.4041 5.2242 100.6117 C 4.8402 107.6052 9.0148 114.8413 13.502 119.9632 C 17.9957 125.0849 24.8698 128.7694 31.2017 130.2229 C 40.978 132.4542 52.0515 132.924 61.2852 130.6769 C 70.466 128.4373 79.8941 123.7543 86.1589 117.0125 C 91.2043 111.5749 94.1815 103.2196 93.7164 96.0561 C 93.1342 87.143 88.9488 78.5654 83.0315 71.4596 C 76.5882 63.7684 65.255 61.7102 57.9451 54.7219 C 55.2552 52.1524 53.8872 48.0985 54.1219 44.2143 C 54.32 41.9832 56.7624 39.9499 58.9951 39.5002 C 61.7551 38.9618 64.1935 41.5159 66.9777 42.3321 C 71.5364 43.6916 75.5455 46.4755 80.6064 46.7156 C 84.47 46.9043 88.8869 46.2437 91.7867 43.5413 C 96.1675 39.3847 100.9903 33.3231 99.7573 27.2045 Z "/>
  <g id="ID0.19996496848762035">
    <path id="ID0.08573777927085757" fill="url(#grad_2-.885226726531982,-0.12301604449748993,0.12301604449748993,6.885226726531982,-1592.6,-752.1)" stroke="#4C0099" stroke-width="6.8863255821195475" stroke-linecap="round" d="M 148.5774 59.4674 L 67.7984 9.9437 L 102.4463 60.2916 L 68.4569 85.3492 L 135.0596 131.6825 L 114.299 87.6295 L 148.5774 59.4674 Z "/>
    <path id="ID0.21880413126200438" fill="none" stroke="#CC99FF" stroke-width="6.8863255821195475" stroke-linecap="round" d="M 70.8352 86.3389 L 92.5606 88.017 L 114.5933 87.6234 "/>
    <path id="ID0.3713448508642614" fill="none" stroke="#CC99FF" stroke-width="6.8863255821195475" stroke-linecap="round" d="M 148.1831 59.4735 L 122.7324 61.3057 L 101.7078 60.3039 "/>
    <path id="ID0.19901999505236745" fill="none" stroke="#4C0099" stroke-width="6.8863255821195475" stroke-linecap="round" d="M 76.4964 17.7079 L 123.7651 61.2873 L 91.1712 87.3531 L 130.0854 125.9161 "/>
    <path id="ID0.08573777927085757" fill="none" stroke="#4C0099" stroke-width="6.8863255821195475" stroke-linecap="round" d="M 148.5774 59.4674 L 67.7984 9.9437 L 102.4463 60.2916 L 68.4569 85.3492 L 135.0596 131.6825 L 114.299 87.6295 L 148.5774 59.4674 Z "/>
  </g>
</svg>